<svg version="1.1" id="Layer_1" xmlns="http://www.w3.org/2000/svg" xmlns:xlink="http://www.w3.org/1999/xlink" x="0px" y="0px"
	 width="100%" viewBox="0 0 439 203" enable-background="new 0 0 439 203" xml:space="preserve">
<path fill="#010101" opacity="1.000000" stroke="none" 
	d="
M333.000000,204.000000 
	C222.000046,204.000000 111.500076,204.000000 1.000089,204.000000 
	C1.000059,136.333405 1.000059,68.666794 1.000030,1.000143 
	C147.333221,1.000096 293.666443,1.000096 439.999756,1.000048 
	C439.999817,68.666527 439.999817,136.333054 439.999908,203.999786 
	C404.500000,204.000000 369.000000,204.000000 333.000000,204.000000 
M390.161194,50.565308 
	C390.305023,50.239162 390.550812,50.036945 391.676544,49.990471 
	C393.665192,49.743988 396.599365,50.064850 393.848785,46.164345 
	C396.456024,43.073990 399.063232,39.983635 402.347809,36.684803 
	C403.844055,34.692715 405.340302,32.700626 407.424744,30.699808 
	C407.904907,30.366695 408.385071,30.033583 409.241272,30.212360 
	C410.851776,27.592108 412.462280,24.971853 414.454773,21.905367 
	C414.718750,21.385632 414.982727,20.865896 415.777405,20.106447 
	C416.417206,19.680618 417.057037,19.254789 418.427399,18.981892 
	C419.464233,19.149378 420.501038,19.316864 422.290436,19.605917 
	C421.519836,17.764448 421.040894,16.619946 420.655487,14.854024 
	C417.725067,11.814143 416.030396,15.400830 413.029968,16.317717 
	C412.039581,16.687061 411.049225,17.056404 409.453644,17.370440 
	C408.778412,17.801701 408.103149,18.232964 406.726440,18.812719 
	C402.486938,20.549814 398.247467,22.286909 393.283417,24.098314 
	C390.153992,25.662004 387.024567,27.225695 383.144562,28.880629 
	C380.550690,29.787783 377.956818,30.694935 374.627563,31.615013 
	C370.756561,33.152946 366.885559,34.690884 362.436646,36.162735 
	C361.964996,36.461124 361.493378,36.759514 360.280029,37.088142 
	C348.857941,41.738449 337.435852,46.388756 325.310913,50.997154 
	C323.877014,51.672558 322.443085,52.347958 320.268433,53.066044 
	C315.184174,55.124355 310.099945,57.182663 304.445282,59.195976 
	C303.975677,59.498154 303.506073,59.800331 302.285187,60.134495 
	C295.858154,62.775764 289.431091,65.417030 282.406982,68.021729 
	C281.933167,68.335197 281.459320,68.648666 280.328339,68.969131 
	C279.143707,69.490379 277.959045,70.011635 276.311798,70.536469 
	C276.311798,70.536469 276.006744,70.884232 275.271698,70.923302 
	C268.947510,73.494194 262.623322,76.065086 255.660507,78.693810 
	C255.114059,79.017525 254.567596,79.341232 253.413208,79.557610 
	C252.714676,79.949028 252.016129,80.340446 250.706070,80.682625 
	C249.803177,81.134338 248.900299,81.586052 247.276871,82.065712 
	C244.442993,83.490891 241.609116,84.916061 238.152786,86.669266 
	C235.487015,90.117844 232.821228,93.566422 229.647598,97.341156 
	C229.080444,97.887077 228.513290,98.432991 227.234131,99.051201 
	C222.701019,99.434494 221.880722,102.463905 221.936844,106.842041 
	C221.235641,107.869301 220.534439,108.896561 219.228439,110.159378 
	C218.685379,110.734444 218.142319,111.309517 217.475525,111.805008 
	C217.475525,111.805008 217.351013,111.883324 216.722168,111.881805 
	C216.490692,111.563423 216.259216,111.245041 216.044525,110.154816 
	C215.755936,108.729240 215.467346,107.303665 215.359177,106.769325 
	C216.811218,104.888153 217.780777,103.632034 218.750351,102.375923 
	C217.160522,102.202705 215.571976,102.015770 213.979797,101.867752 
	C213.659058,101.837936 213.324570,101.955780 212.753952,101.636597 
	C212.442108,101.643166 212.130280,101.649734 211.818436,101.656303 
	C212.214340,101.768906 212.610260,101.881508 213.026169,103.080864 
	C212.954742,104.163429 212.883301,105.245987 212.174301,105.920822 
	C211.779312,105.622803 211.384308,105.324783 210.916428,104.415878 
	C210.104843,103.521980 209.293243,102.628082 208.304718,101.079727 
	C207.136459,99.724716 205.968185,98.369698 204.748932,96.472031 
	C204.490570,96.000641 204.232224,95.529259 204.076706,94.401131 
	C204.750610,90.456352 202.851395,88.863289 198.639389,88.776695 
	C198.261993,88.457397 197.884598,88.138107 197.306854,87.220680 
	C196.854233,86.519348 196.401627,85.818008 195.889587,84.479401 
	C194.939209,84.267838 193.988846,84.056274 192.332687,83.797577 
	C190.551895,83.205490 188.771103,82.613403 187.120743,81.759697 
	C187.120743,81.759697 187.139160,81.467926 186.858475,80.858696 
	C184.363968,80.006241 181.869461,79.153793 178.684250,78.268570 
	C177.132202,77.825844 175.580139,77.383110 173.570374,76.403488 
	C169.270111,74.844406 164.969864,73.285324 160.221680,71.135033 
	C147.154068,66.033897 134.086456,60.932766 120.847351,55.653427 
	C120.847351,55.653427 120.622208,55.755787 120.155624,55.191227 
	C115.440048,53.433926 110.724464,51.676620 105.470657,49.493767 
	C104.400673,49.120903 103.330696,48.748039 101.860382,47.866035 
	C97.896286,46.362835 93.932198,44.859631 89.327385,42.969852 
	C86.260757,41.856201 83.194122,40.742550 79.718941,39.096733 
	C75.147949,37.375141 70.576950,35.653553 65.477135,33.499825 
	C63.983532,33.003464 62.489933,32.507103 60.523716,31.499882 
	C53.698193,28.890715 46.872665,26.281546 39.619316,23.146048 
	C34.468334,21.389902 29.317350,19.633759 23.742336,17.264021 
	C21.035931,16.407654 18.329527,15.551285 15.623121,14.694916 
	C15.057926,15.391108 14.492731,16.087299 13.927536,16.783489 
	C16.150955,18.359818 18.374374,19.936144 20.854145,22.125114 
	C22.777021,24.248343 24.699900,26.371569 26.866474,29.122772 
	C29.550938,32.143124 32.235405,35.163479 35.101055,38.766369 
	C35.803036,39.476856 36.505020,40.187340 37.372257,41.555794 
	C41.155445,46.352295 44.907299,51.174179 48.752525,55.920418 
	C49.396667,56.715504 50.369972,57.536007 51.320709,57.739452 
	C55.190151,58.567463 59.109997,59.159935 63.656029,60.090973 
	C64.768013,60.337101 65.880005,60.583229 67.654510,61.181248 
	C70.779167,61.862957 73.903831,62.544666 77.637039,63.628067 
	C78.113815,63.688957 78.590584,63.749851 79.594276,64.322922 
	C84.401665,65.467888 89.209053,66.612854 94.609818,68.026848 
	C95.253044,68.098900 95.896278,68.170952 97.039787,68.730736 
	C98.375549,68.975487 99.711319,69.220245 101.687874,69.852547 
	C102.913925,70.025429 104.139977,70.198311 105.873863,70.911102 
	C112.254631,72.526100 118.635406,74.141098 125.632324,75.993332 
	C126.069717,76.004585 126.507118,76.015846 126.498009,76.762917 
	C124.366890,76.945793 122.236328,77.279106 120.104561,77.286980 
	C106.880447,77.335793 93.656052,77.311546 80.431755,77.311546 
	C80.272964,77.693626 80.114182,78.075706 79.955391,78.457787 
	C80.989334,79.273094 82.023270,80.088394 83.321144,81.471298 
	C84.487267,82.333496 85.653389,83.195694 87.091415,84.686852 
	C89.589355,86.726707 92.087296,88.766556 94.860405,91.373878 
	C97.524773,93.347656 100.189140,95.321434 102.813385,97.993027 
	C104.422134,99.505569 106.030884,101.018112 108.114288,103.131264 
	C116.735809,103.278740 125.360512,103.338058 133.976151,103.648735 
	C135.681351,103.710213 137.351730,104.737579 138.283020,105.379768 
	C136.521362,105.525444 134.759689,105.671120 132.414108,105.396385 
	C130.326187,105.634048 128.238251,105.871712 126.150314,106.109375 
	C126.371391,106.783928 126.592468,107.458481 127.343681,108.559113 
	C131.249512,110.978951 135.155334,113.398788 139.457703,116.373589 
	C146.751282,123.290588 155.157776,124.696381 164.671448,121.901344 
	C168.147812,120.880013 171.882904,120.529045 175.524368,120.338280 
	C179.256638,120.142769 183.018799,120.517548 187.248566,121.108589 
	C192.061035,123.051598 196.873505,124.994614 202.633041,127.319992 
	C195.357101,131.226395 189.090302,134.591003 182.269653,137.967560 
	C182.218216,138.652725 182.166794,139.337875 182.284302,140.867477 
	C182.245621,143.146713 182.206940,145.425949 181.997147,148.282776 
	C182.228180,148.682343 182.459213,149.081924 182.690247,149.481476 
	C183.158432,149.158905 183.626617,148.836334 184.510437,148.105042 
	C184.878815,147.997818 185.247177,147.890594 186.354111,147.905197 
	C188.319702,147.313263 190.344116,146.619492 189.765793,150.592300 
	C188.823792,151.681976 187.881805,152.771637 186.399338,154.023697 
	C185.949493,154.357483 185.499649,154.691254 184.395996,154.973999 
	C183.818298,155.332581 183.240601,155.691162 182.662903,156.049744 
	C183.426117,156.371109 184.189316,156.692474 185.408737,157.476959 
	C185.902802,158.658890 186.396866,159.840820 186.479416,161.351410 
	C186.921021,161.916885 187.362625,162.482346 188.018219,163.577942 
	C188.352997,164.037704 188.687775,164.497482 189.002548,165.717636 
	C190.037598,166.457733 191.072647,167.197815 192.756073,167.732361 
	C193.554489,166.168152 194.352905,164.603958 195.872360,162.969818 
	C196.551300,161.928146 197.230255,160.886459 198.063828,159.305023 
	C198.417297,158.881027 198.770767,158.457016 199.812515,157.897156 
	C200.111938,157.100449 200.411377,156.303741 200.861542,154.912048 
	C201.067429,154.346161 201.273315,153.780273 201.771973,153.303513 
	C201.771973,153.303513 202.076233,153.270508 202.574081,153.682968 
	C203.434158,153.802246 204.294250,153.921524 204.959854,154.663177 
	C204.879547,155.088699 204.799240,155.514206 204.196915,156.021439 
	C204.126755,156.679886 204.056595,157.338318 203.977463,158.653931 
	C203.873230,159.077591 203.769012,159.501266 203.138779,160.010330 
	C203.086945,160.672485 203.035110,161.334625 202.983566,162.656250 
	C202.854248,163.073975 202.724930,163.491699 202.036865,164.041428 
	C201.922729,165.004898 201.808594,165.968384 201.699081,167.606552 
	C201.562393,168.030685 201.425705,168.454834 200.834869,169.016617 
	C200.778503,169.653122 200.722137,170.289627 200.656631,171.575119 
	C200.564072,172.430008 200.471527,173.284912 199.855453,174.640305 
	C200.336685,176.818069 200.319717,179.302841 201.424850,181.096130 
	C202.816437,183.354233 205.124985,185.047256 207.164352,187.608231 
	C208.101059,188.426910 209.037766,189.245605 210.112473,190.526978 
	C210.297699,190.818726 210.561493,190.988235 211.056305,191.649445 
	C212.245377,192.831879 213.434433,194.014313 214.860199,195.858063 
	C217.132828,199.226501 218.862717,198.186615 220.881454,194.809387 
	C222.007523,193.247849 223.133591,191.686310 224.824799,190.089020 
	C225.318634,189.585739 225.812454,189.082474 226.937500,188.300873 
	C229.219727,185.887939 231.420059,183.390121 233.807892,181.086670 
	C236.058685,178.915405 236.670074,176.718903 234.742966,173.545715 
	C234.740860,173.163284 234.738770,172.780838 234.962631,171.746368 
	C234.560837,170.787964 234.159042,169.829559 233.457901,168.264954 
	C233.415573,167.818176 233.373245,167.371399 233.732651,166.522247 
	C233.293564,165.651215 232.854462,164.780197 232.155289,163.301895 
	C232.113785,162.865707 232.072281,162.429520 232.456497,161.697342 
	C232.085098,161.105637 231.713715,160.513916 231.109482,159.433990 
	C231.010056,159.283585 230.910629,159.133163 230.815155,158.232986 
	C230.433884,156.520309 230.052612,154.807617 230.632675,152.960678 
	C231.272156,152.864929 231.911652,152.769180 233.003342,152.861496 
	C233.295883,153.012604 233.604218,153.117188 233.944412,153.788498 
	C234.027161,154.186691 234.109894,154.584869 234.106842,155.684982 
	C235.743073,158.120880 237.379303,160.556763 239.059402,163.714035 
	C239.988678,164.569916 240.917953,165.425797 241.914505,166.690063 
	C241.914505,166.690063 242.245117,166.939041 242.263245,167.573517 
	C245.933044,170.062805 244.999771,166.341034 246.158569,164.498657 
	C246.470123,164.007584 246.781693,163.516495 247.789093,162.857529 
	C248.433472,161.083969 249.077866,159.310410 249.748444,157.200836 
	C249.748444,157.200836 250.024368,157.007324 250.692841,157.021774 
	C251.274673,156.606308 251.856491,156.190826 252.438309,155.775345 
	C251.279938,155.190292 250.121552,154.605240 248.507599,153.937164 
	C248.507599,153.937164 248.047211,153.887497 247.843338,153.265198 
	C246.573059,152.154434 245.302780,151.043686 244.140564,149.233124 
	C244.799011,148.131134 245.457458,147.029144 246.784195,146.076202 
	C248.158539,146.886780 249.532867,147.697372 251.061615,149.064041 
	C251.649368,148.606293 252.237137,148.148560 252.708694,146.850510 
	C252.768753,144.575684 252.828812,142.300842 253.322723,139.701279 
	C252.936768,139.110428 252.550812,138.519577 251.508179,137.680298 
	C245.441025,134.385513 239.373886,131.090744 232.269165,127.232521 
	C238.244720,124.764778 243.239563,122.702042 249.143707,120.563103 
	C255.327911,120.922157 261.542053,121.014557 267.689056,121.704910 
	C276.181732,122.658699 284.926819,126.099777 292.723541,118.179512 
	C297.872406,114.828362 303.021271,111.477211 308.840485,108.115181 
	C308.785919,107.424706 308.782104,106.141075 308.669281,106.131416 
	C306.452576,105.941803 304.223206,105.900230 301.245483,105.752129 
	C299.491241,105.606827 297.737030,105.461533 295.737152,104.561157 
	C295.827301,104.043488 295.917480,103.525818 296.943817,103.026741 
	C305.584106,103.031204 314.225342,103.103477 322.863861,102.981880 
	C324.555084,102.958076 326.235748,102.183311 328.528290,101.637772 
	C329.510925,100.619865 330.493561,99.601959 331.495331,98.562141 
	C331.495331,98.562141 331.523407,98.553108 332.149628,98.307983 
	C334.940704,95.804016 337.731781,93.300056 341.149567,90.569038 
	C342.417999,89.343987 343.686432,88.118927 345.547638,86.769180 
	C346.402435,85.926727 347.257233,85.084274 348.728577,84.038490 
	C349.784546,83.006378 350.840485,81.974266 351.973969,80.974113 
	C351.973969,80.974113 351.942291,80.896477 352.529480,80.760521 
	C353.438385,80.277451 354.347321,79.794380 355.256256,79.311302 
	C354.922546,78.944885 354.588837,78.578461 354.255127,78.212044 
	C353.489685,78.212044 352.724274,78.212044 351.185577,78.095276 
	C348.782074,78.091766 346.378571,78.088257 343.540985,77.550774 
	C342.036957,77.729637 340.532928,77.908493 338.147156,78.072571 
	C336.089691,78.077019 334.032257,78.081467 331.582367,77.570053 
	C330.397461,77.741272 329.212585,77.912483 327.114716,78.071045 
	C324.068909,78.072769 321.023132,78.074493 317.498932,77.481911 
	C315.967255,77.424080 314.435577,77.366241 312.790070,76.492195 
	C314.075409,75.715637 315.268463,74.607445 316.661987,74.219841 
	C322.751007,72.526192 328.891846,71.016319 335.025482,69.486160 
	C350.657684,65.586365 366.296051,61.711395 382.218933,58.406734 
	C383.411591,58.613926 384.604218,58.821114 385.796875,59.028301 
	C385.495728,58.287785 385.194550,57.547268 385.202972,56.317810 
	C386.005310,55.485313 386.807617,54.652817 388.345123,53.830490 
	C388.901062,52.898640 389.456970,51.966789 390.161194,50.565308 
z"/>
<path fill="#9E9E9E" opacity="1.000000" stroke="none" 
	d="
M363.014557,36.228821 
	C366.885559,34.690884 370.756561,33.152946 375.381653,31.814432 
	C381.572754,32.552147 387.131714,34.025665 392.408905,33.337711 
	C396.759644,32.770531 399.173920,34.171982 401.670441,36.893272 
	C399.063232,39.983635 396.456024,43.073990 393.431305,46.577446 
	C392.268585,47.653408 391.523346,48.316265 390.469269,48.983597 
	C389.805176,49.673298 389.449921,50.358517 389.018921,51.274834 
	C388.774414,51.809059 388.520538,51.997540 387.811523,52.052551 
	C385.094452,53.095303 380.099854,51.332207 382.058136,57.233192 
	C382.012024,57.430073 381.931976,57.826496 381.931976,57.826492 
	C366.296051,61.711395 350.657684,65.586365 335.025482,69.486160 
	C328.891846,71.016319 322.751007,72.526192 316.661987,74.219841 
	C315.268463,74.607445 314.075409,75.715637 312.862366,77.183754 
	C312.950531,78.254181 312.966400,78.633057 312.520813,79.012161 
	C305.621246,79.341202 299.183075,79.931808 292.745056,79.930084 
	C285.309479,79.928093 277.874451,79.392776 270.438385,79.110741 
	C265.726074,78.932007 261.012268,78.792870 256.299133,78.635986 
	C262.623322,76.065086 268.947510,73.494194 275.636780,71.238266 
	C276.317963,72.190147 276.634094,72.827057 276.950226,73.463959 
	C277.197266,73.336830 277.444305,73.209694 277.691345,73.082565 
	C277.385712,72.232666 277.080078,71.382774 276.774414,70.532883 
	C277.959045,70.011635 279.143707,69.490379 280.826660,69.184448 
	C281.884644,68.952599 282.444366,68.505447 283.004059,68.058296 
	C289.431091,65.417030 295.858154,62.775764 302.831268,60.313896 
	C303.923462,60.075851 304.469574,59.658413 305.015686,59.240974 
	C310.099945,57.182663 315.184174,55.124355 320.859406,53.292194 
	C322.971497,52.691914 324.492615,51.865482 326.013763,51.039059 
	C337.435852,46.388756 348.857941,41.738449 360.816589,37.276543 
	C361.906982,37.052898 362.460754,36.640858 363.014557,36.228821 
M307.515106,76.293579 
	C308.063171,76.404449 308.611267,76.515327 309.159332,76.626198 
	C309.166382,76.228310 309.173431,75.830414 309.180481,75.432526 
	C308.627716,75.527321 308.074921,75.622116 307.515106,76.293579 
z"/>
<path fill="#9E9E9E" opacity="1.000000" stroke="none" 
	d="
M160.669601,71.726242 
	C164.969864,73.285324 169.270111,74.844406 173.511108,76.956085 
	C169.373825,77.390862 165.121780,76.471062 161.251587,77.310898 
	C151.078796,79.518425 141.083466,80.173798 130.800140,76.804863 
	C131.081940,75.303383 131.889343,74.037506 132.038254,72.698410 
	C132.172562,71.490799 131.585938,70.203033 131.135635,68.103996 
	C129.236877,71.693504 128.090698,73.860306 126.944519,76.027100 
	C126.507118,76.015846 126.069717,76.004585 125.225922,75.538040 
	C123.230530,74.346802 121.197708,74.005722 120.130219,72.805817 
	C115.769897,67.904686 110.456314,70.063179 105.366028,70.371185 
	C104.139977,70.198311 102.913925,70.025429 101.337570,69.326088 
	C99.504684,68.614090 98.022095,68.428551 96.539505,68.243011 
	C95.896278,68.170952 95.253044,68.098900 94.228249,67.568703 
	C89.734154,62.365234 84.919113,60.766342 79.067360,63.810741 
	C78.590584,63.749851 78.113815,63.688957 77.187714,63.163300 
	C75.264748,61.672497 73.736130,60.716049 72.329849,59.604782 
	C69.984055,57.751099 68.152969,57.720833 66.991989,60.829361 
	C65.880005,60.583229 64.768013,60.337101 63.260338,59.646389 
	C62.040131,58.478222 61.215618,57.754639 60.393555,57.033207 
	C61.268147,55.603855 62.082951,54.272217 62.464195,53.649147 
	C59.500706,53.190399 55.224396,53.557922 54.637608,52.258869 
	C52.134964,46.718433 50.579563,49.772907 48.075951,53.928894 
	C46.235374,47.986389 44.805523,43.369946 43.270653,38.414444 
	C41.739204,39.041649 39.473103,39.969738 37.207001,40.897827 
	C36.505020,40.187340 35.803036,39.476856 35.114433,38.099548 
	C38.864895,35.758480 42.240551,33.627026 46.908855,34.613403 
	C51.693787,35.624424 56.890495,36.003483 60.996330,32.010746 
	C62.489933,32.507103 63.983532,33.003464 65.794312,34.054310 
	C68.196510,39.870575 74.620934,37.974903 77.781647,41.542656 
	C77.808861,41.573368 79.312950,40.295700 80.127495,39.628899 
	C83.194122,40.742550 86.260757,41.856201 89.653748,43.547359 
	C90.350029,44.988113 90.519676,46.403168 91.123383,46.622269 
	C94.303207,47.776325 97.581001,48.673389 100.861000,49.519241 
	C101.206268,49.608280 101.788452,48.778618 102.260712,48.375175 
	C103.330696,48.748039 104.400673,49.120903 105.753082,50.089134 
	C108.722862,52.917931 111.150284,55.693161 114.205864,57.159004 
	C115.762108,57.905575 118.447319,56.298786 120.622208,55.755783 
	C120.622208,55.755787 120.847351,55.653427 120.960930,56.106087 
	C121.582764,57.880306 122.091026,59.201862 122.599289,60.523422 
	C122.847801,60.160969 123.096321,59.798515 123.344841,59.436062 
	C125.033867,59.929131 126.765961,60.310913 128.400894,60.943737 
	C130.396133,61.716022 132.309753,62.699154 135.202225,64.022926 
	C136.205429,66.365089 136.285782,70.982666 141.821686,71.032043 
	C148.105881,71.088097 154.387100,71.480217 160.669601,71.726242 
M89.630394,51.848469 
	C90.460777,51.924797 91.291168,52.001129 92.121552,52.077461 
	C92.114296,51.517731 92.107048,50.958000 92.099792,50.398270 
	C91.201813,50.686249 90.303825,50.974228 89.630394,51.848469 
M80.987968,44.300880 
	C81.163147,45.034237 81.338333,45.767593 81.513512,46.500950 
	C81.909935,46.323036 82.306358,46.145126 82.702782,45.967216 
	C82.336754,45.377670 81.970734,44.788120 80.987968,44.300880 
M155.728592,74.512466 
	C155.988770,74.265686 156.248947,74.018906 156.509140,73.772133 
	C156.406815,73.664543 156.221222,73.457726 156.214142,73.463676 
	C155.939713,73.693886 155.681625,73.943550 155.728592,74.512466 
M66.512787,40.271358 
	C66.266464,40.012032 66.022423,39.750263 65.761139,39.507015 
	C65.754387,39.500729 65.558876,39.697197 65.451401,39.799107 
	C65.698036,40.058544 65.944679,40.317986 66.512787,40.271358 
M86.820297,47.447605 
	C86.815651,47.805206 86.807678,48.162968 86.825005,48.519505 
	C86.825455,48.528683 87.232025,48.534615 87.232796,48.524902 
	C87.261002,48.169048 87.263550,47.811161 86.820297,47.447605 
z"/>
<path fill="#E9E9E9" opacity="1.000000" stroke="none" 
	d="
M182.823502,137.955612 
	C189.090302,134.591003 195.357101,131.226395 202.633041,127.319992 
	C196.873505,124.994614 192.061035,123.051598 187.114136,120.461983 
	C188.025696,119.211601 189.030899,118.181252 190.124619,118.076675 
	C195.322189,117.579720 200.541245,117.107407 205.757507,117.047394 
	C216.808487,116.920250 227.885834,116.670273 238.899704,117.338608 
	C241.846558,117.517426 246.342407,116.272034 248.234406,120.639305 
	C243.239563,122.702042 238.244720,124.764778 232.269165,127.232521 
	C239.373886,131.090744 245.441025,134.385513 251.840607,138.087402 
	C252.411636,139.005005 252.650253,139.515518 252.888870,140.026016 
	C252.828812,142.300842 252.768753,144.575684 252.446594,147.406036 
	C251.758728,148.143677 251.332962,148.325806 250.907211,148.507950 
	C249.532867,147.697372 248.158539,146.886780 246.303909,145.684174 
	C242.493729,143.638809 239.163818,141.985489 235.833923,140.332184 
	C235.617172,140.729340 235.400436,141.126511 235.183685,141.523682 
	C236.805008,143.306320 238.426315,145.088959 239.897247,147.179871 
	C237.807373,149.383865 235.867859,151.279572 233.928345,153.175262 
	C233.604218,153.117188 233.295883,153.012604 232.730209,152.430603 
	C232.167679,151.386490 231.878281,150.773270 231.858475,150.003387 
	C231.486542,149.228271 230.845016,148.609833 229.999603,147.792755 
	C229.501221,147.114151 229.206741,146.634186 228.882690,145.849030 
	C228.132812,145.240753 227.412506,144.937698 226.692200,144.634644 
	C227.056229,145.078110 227.420258,145.521576 227.826538,146.343750 
	C227.846634,147.480942 227.824493,148.239426 227.346756,148.994873 
	C219.935989,148.994247 212.980804,148.996643 205.773865,148.909363 
	C204.373459,150.303284 203.224854,151.786896 202.076233,153.270508 
	C202.076233,153.270508 201.771973,153.303513 201.322968,153.057159 
	C198.854599,150.853394 196.835220,148.895966 194.967545,146.619843 
	C196.557312,144.578201 197.995377,142.855270 200.244614,140.160461 
	C194.124130,141.887939 189.773346,144.635178 185.615555,147.783386 
	C185.247177,147.890594 184.878815,147.997818 183.975647,148.189087 
	C183.016647,148.083817 182.592453,147.894501 182.168243,147.705185 
	C182.206940,145.425949 182.245621,143.146713 182.352463,140.210754 
	C182.554916,139.021225 182.689209,138.488419 182.823502,137.955612 
z"/>
<path fill="#E4E4E4" opacity="1.000000" stroke="none" 
	d="
M248.689056,120.601204 
	C246.342407,116.272034 241.846558,117.517426 238.899704,117.338608 
	C227.885834,116.670273 216.808487,116.920250 205.757507,117.047394 
	C200.541245,117.107407 195.322189,117.579720 190.124619,118.076675 
	C189.030899,118.181252 188.025696,119.211601 186.873779,120.229042 
	C183.018799,120.517548 179.256638,120.142769 175.524368,120.338280 
	C171.882904,120.529045 168.147812,120.880013 164.671448,121.901344 
	C155.157776,124.696381 146.751282,123.290588 139.263000,115.792877 
	C139.039429,114.808945 139.010559,114.405708 139.339935,113.846603 
	C141.953613,113.786499 144.208939,113.963158 146.464447,113.965340 
	C165.950195,113.984138 185.439819,114.165604 204.918015,113.779694 
	C208.214035,113.714386 212.833801,115.616882 215.301056,110.886467 
	C215.540314,110.932968 216.027740,110.926659 216.027740,110.926659 
	C216.259216,111.245041 216.490692,111.563423 216.959442,112.095154 
	C217.330902,112.167191 217.465088,112.025887 217.599258,111.884583 
	C218.142319,111.309517 218.685379,110.734444 219.811310,110.102966 
	C220.584641,110.065712 220.775101,110.084862 220.978394,110.484970 
	C221.604660,111.836197 222.145294,113.581703 222.843658,113.647270 
	C226.565735,113.996712 230.327164,113.981506 234.075211,113.990013 
	C246.192108,114.017532 258.309601,113.945549 270.425751,114.045113 
	C272.940948,114.065788 275.475952,115.056732 277.958862,114.903656 
	C282.838684,114.602806 287.683929,113.765930 292.558228,113.307503 
	C292.978455,113.267982 293.508270,114.393456 293.649353,115.049210 
	C292.877258,116.088181 292.442993,117.055702 292.008728,118.023224 
	C284.926819,126.099777 276.181732,122.658699 267.689056,121.704910 
	C261.542053,121.014557 255.327911,120.922157 248.689056,120.601204 
z"/>
<path fill="#C2C2C2" opacity="1.000000" stroke="none" 
	d="
M107.639633,102.530647 
	C106.030884,101.018112 104.422134,99.505569 103.006943,97.307220 
	C106.864952,95.415504 110.514107,93.223305 114.196358,93.166222 
	C135.619293,92.834152 157.051270,93.140007 178.477463,92.939110 
	C187.530731,92.854233 196.291412,93.935806 204.799927,97.014687 
	C205.968185,98.369698 207.136459,99.724716 208.105713,101.568726 
	C207.604446,102.371132 207.302200,102.684540 206.750870,102.993622 
	C206.501785,102.989296 206.003754,102.974091 205.952988,102.617943 
	C203.779968,101.840126 201.670013,101.138268 199.533386,101.044571 
	C189.503632,100.604752 179.464249,100.386559 169.433472,99.966415 
	C166.440674,99.841064 164.538635,100.511932 164.515900,103.976624 
	C163.111832,103.782227 162.182724,103.603752 161.204224,103.141678 
	C143.316422,102.748940 125.478027,102.639793 107.639633,102.530647 
z"/>
<path fill="#B8B8B8" opacity="1.000000" stroke="none" 
	d="
M340.522858,90.796089 
	C337.731781,93.300056 334.940704,95.804016 331.669556,98.046738 
	C329.726288,96.889122 328.257629,95.209702 326.800659,95.219772 
	C314.688354,95.303490 302.576904,95.657982 290.468384,96.032547 
	C287.838776,96.113884 285.188782,97.036003 282.604401,96.837761 
	C265.109863,95.495758 247.633072,95.229073 230.155457,97.014999 
	C232.821228,93.566422 235.487015,90.117844 238.671814,86.876175 
	C241.874588,87.722725 244.550705,88.874908 247.243378,88.915001 
	C260.227936,89.108345 273.217438,89.069618 286.204315,88.984016 
	C300.502960,88.889771 314.801941,88.486511 329.097961,88.593445 
	C332.911560,88.621964 336.714844,90.024414 340.522858,90.796089 
z"/>
<path fill="#C5C5C5" opacity="1.000000" stroke="none" 
	d="
M229.901520,97.178085 
	C247.633072,95.229073 265.109863,95.495758 282.604401,96.837761 
	C285.188782,97.036003 287.838776,96.113884 290.468384,96.032547 
	C302.576904,95.657982 314.688354,95.303490 326.800659,95.219772 
	C328.257629,95.209702 329.726288,96.889122 331.356445,98.169296 
	C331.523407,98.553108 331.495331,98.562141 331.132355,98.442924 
	C329.820007,99.467445 328.870636,100.611176 327.921265,101.754906 
	C326.235748,102.183311 324.555084,102.958076 322.863861,102.981880 
	C314.225342,103.103477 305.584106,103.031204 296.026978,102.871536 
	C288.894196,102.556892 282.678253,102.397453 276.051697,102.163803 
	C274.437073,102.715538 273.233002,103.341476 271.691071,103.977280 
	C270.902557,103.991020 270.451874,103.994896 269.996582,103.587540 
	C270.233429,99.904594 268.025604,99.827332 265.756866,100.040451 
	C263.313049,100.270027 260.888916,100.922241 258.450256,100.955879 
	C249.760193,101.075691 241.066254,100.939133 232.377625,101.103226 
	C231.239944,101.124718 230.124634,102.329948 228.685364,102.848480 
	C227.759979,102.401047 227.148209,102.092026 226.627533,101.475708 
	C227.127808,100.438583 227.536972,99.708755 227.946136,98.978912 
	C228.513290,98.432991 229.080444,97.887077 229.901520,97.178085 
z"/>
<path fill="#B8B8B8" opacity="1.000000" stroke="none" 
	d="
M204.774429,96.743362 
	C196.291412,93.935806 187.530731,92.854233 178.477463,92.939110 
	C157.051270,93.140007 135.619293,92.834152 114.196358,93.166222 
	C110.514107,93.223305 106.864952,95.415504 103.027008,96.958313 
	C100.189140,95.321434 97.524773,93.347656 94.855965,90.706100 
	C95.234650,89.543861 95.598434,88.636032 96.003792,88.617073 
	C101.864426,88.342995 107.730087,88.051926 113.595612,88.028061 
	C141.565964,87.914268 169.536636,87.880829 197.507202,87.818810 
	C197.884598,88.138107 198.261993,88.457397 198.916138,89.196487 
	C200.786545,91.430138 202.380203,93.244003 203.973862,95.057869 
	C204.232224,95.529259 204.490570,96.000641 204.774429,96.743362 
z"/>
<path fill="#A6A6A6" opacity="1.000000" stroke="none" 
	d="
M255.979828,78.664902 
	C261.012268,78.792870 265.726074,78.932007 270.438385,79.110741 
	C277.874451,79.392776 285.309479,79.928093 292.745056,79.930084 
	C299.183075,79.931808 305.621246,79.341202 312.904236,79.011421 
	C315.158508,78.699028 316.567902,78.387619 317.977325,78.076218 
	C321.023132,78.074493 324.068909,78.072769 327.790741,78.314362 
	C329.636108,78.400421 330.805450,78.243172 331.974792,78.085915 
	C334.032257,78.081467 336.089691,78.077019 338.830322,78.322876 
	C341.000671,78.410378 342.487885,78.247566 343.975067,78.084755 
	C346.378571,78.088257 348.782074,78.091766 351.564819,78.601120 
	C351.943451,79.703476 351.942902,80.299973 351.942322,80.896477 
	C351.942291,80.896477 351.973969,80.974113 351.568878,80.966614 
	C350.146545,82.053345 349.129303,83.147583 348.112061,84.241821 
	C347.257233,85.084274 346.402435,85.926727 345.037109,86.507523 
	C342.492737,85.830170 340.460175,85.060493 338.424774,85.052963 
	C315.342560,84.967575 292.259369,85.082794 269.177612,84.945541 
	C262.592133,84.906387 256.007507,84.263489 249.432632,83.764313 
	C248.913513,83.724899 248.473938,82.637909 247.997406,82.037766 
	C248.900299,81.586052 249.803177,81.134338 251.339798,80.770248 
	C252.656067,80.460228 253.338608,80.062584 254.021149,79.664940 
	C254.567596,79.341232 255.114059,79.017525 255.979828,78.664902 
z"/>
<path fill="#D4D4D4" opacity="1.000000" stroke="none" 
	d="
M226.536453,101.783012 
	C227.148209,102.092026 227.759979,102.401047 228.747147,103.176880 
	C242.748779,103.762062 256.375000,103.880424 270.001221,103.998779 
	C270.451874,103.994896 270.902557,103.991020 272.010681,104.021957 
	C273.790375,104.008507 274.912567,103.960243 276.450623,103.940659 
	C283.238586,104.418297 289.610687,104.867256 295.982788,105.316223 
	C297.737030,105.461533 299.491241,105.606827 301.892365,106.047951 
	C304.416199,106.937866 306.293182,107.531960 308.170135,108.126053 
	C303.021271,111.477211 297.872406,114.828362 292.366150,118.101364 
	C292.442993,117.055702 292.877258,116.088181 293.995941,115.012665 
	C295.758270,114.092461 296.836121,113.280243 297.914001,112.468025 
	C297.770355,111.977417 297.626709,111.486801 297.483063,110.996193 
	C293.718994,110.996193 289.954895,110.996147 286.190826,110.996201 
	C266.399445,110.996475 246.607986,111.021667 226.816803,110.958084 
	C224.865494,110.951820 222.915939,110.401703 220.965561,110.104019 
	C220.775101,110.084862 220.584641,110.065712 220.113708,109.985191 
	C220.534439,108.896561 221.235641,107.869301 222.326706,106.421432 
	C223.989868,104.594887 225.263168,103.188950 226.536453,101.783012 
z"/>
<path fill="#A6A6A6" opacity="1.000000" stroke="none" 
	d="
M131.039001,77.008591 
	C141.083466,80.173798 151.078796,79.518425 161.251587,77.310898 
	C165.121780,76.471062 169.373825,77.390862 173.739960,77.224533 
	C175.580139,77.383110 177.132202,77.825844 179.253036,78.563171 
	C182.260941,79.727829 184.700043,80.597878 187.139160,81.467926 
	C187.139160,81.467926 187.120743,81.759697 186.968216,82.256950 
	C185.986237,83.164589 184.937439,84.127769 184.361511,83.899239 
	C179.032089,81.784576 173.790192,84.047798 168.520523,84.037292 
	C141.286972,83.982964 114.053200,84.039810 86.819511,84.057892 
	C85.653389,83.195694 84.487267,82.333496 83.402832,80.863869 
	C85.356468,79.841698 87.225372,79.084389 89.100868,79.067734 
	C101.428993,78.958275 113.759544,79.083290 126.086441,78.918144 
	C127.745529,78.895920 129.388550,77.674637 131.039001,77.008591 
z"/>
<path fill="#D4D4D4" opacity="1.000000" stroke="none" 
	d="
M161.253632,103.425278 
	C162.182724,103.603752 163.111832,103.782227 164.922577,104.038673 
	C178.915710,107.512825 192.195358,105.299721 205.407272,105.204460 
	C205.611450,105.202995 205.805161,103.749794 206.003754,102.974091 
	C206.003754,102.974091 206.501785,102.989296 206.892960,103.274902 
	C208.519196,104.049271 209.754257,104.538017 210.989319,105.026764 
	C211.384308,105.324783 211.779312,105.622803 212.433304,106.288025 
	C213.213364,107.734138 213.734436,108.813049 213.866791,109.912979 
	C209.638153,110.288109 205.795349,110.974030 201.958801,110.940628 
	C182.186325,110.768494 162.415787,110.382652 142.643585,110.158897 
	C140.332748,110.132744 137.849396,110.488754 138.981689,114.002480 
	C139.010559,114.405708 139.039429,114.808945 139.064728,115.515396 
	C135.155334,113.398788 131.249512,110.978951 127.280136,108.008263 
	C129.143738,106.910545 131.070877,106.363678 132.998032,105.816803 
	C134.759689,105.671120 136.521362,105.525444 138.979752,105.553192 
	C146.868866,104.959503 154.061249,104.192390 161.253632,103.425278 
z"/>
<path fill="#B0B0B0" opacity="1.000000" stroke="none" 
	d="
M86.955460,84.372375 
	C114.053200,84.039810 141.286972,83.982964 168.520523,84.037292 
	C173.790192,84.047798 179.032089,81.784576 184.361511,83.899239 
	C184.937439,84.127769 185.986237,83.164589 186.903000,82.387756 
	C188.771103,82.613403 190.551895,83.205490 192.924683,84.043121 
	C194.327454,84.564659 195.138245,84.840660 195.949020,85.116669 
	C196.401627,85.818008 196.854233,86.519348 197.407028,87.519745 
	C169.536636,87.880829 141.565964,87.914268 113.595612,88.028061 
	C107.730087,88.051926 101.864426,88.342995 96.003792,88.617073 
	C95.598434,88.636032 95.234650,89.543861 94.718384,90.422371 
	C92.087296,88.766556 89.589355,86.726707 86.955460,84.372375 
z"/>
<path fill="#B0B0B0" opacity="1.000000" stroke="none" 
	d="
M247.637146,82.051743 
	C248.473938,82.637909 248.913513,83.724899 249.432632,83.764313 
	C256.007507,84.263489 262.592133,84.906387 269.177612,84.945541 
	C292.259369,85.082794 315.342560,84.967575 338.424774,85.052963 
	C340.460175,85.060493 342.492737,85.830170 344.740723,86.569870 
	C343.686432,88.118927 342.417999,89.343987 340.836212,90.682564 
	C336.714844,90.024414 332.911560,88.621964 329.097961,88.593445 
	C314.801941,88.486511 300.502960,88.889771 286.204315,88.984016 
	C273.217438,89.069618 260.227936,89.108345 247.243378,88.915001 
	C244.550705,88.874908 241.874588,87.722725 238.983032,86.712158 
	C241.609116,84.916061 244.442993,83.490891 247.637146,82.051743 
z"/>
<path fill="#949494" opacity="1.000000" stroke="none" 
	d="
M60.760025,31.755314 
	C56.890495,36.003483 51.693787,35.624424 46.908855,34.613403 
	C42.240551,33.627026 38.864895,35.758480 35.023842,37.808277 
	C32.235405,35.163479 29.550938,32.143124 26.971481,28.503323 
	C30.377861,27.091463 33.703312,26.384062 36.967224,25.459433 
	C38.073811,25.145948 39.024960,24.283800 40.047142,23.672377 
	C46.872665,26.281546 53.698193,28.890715 60.760025,31.755314 
z"/>
<path fill="#CDCDCD" opacity="1.000000" stroke="none" 
	d="
M203.664795,159.924927 
	C203.769012,159.501266 203.873230,159.077591 204.168427,158.298477 
	C204.359406,157.943024 204.734879,157.911270 205.087982,158.057678 
	C209.027939,159.138092 212.608765,160.798721 216.203049,160.828415 
	C221.067017,160.868591 225.941330,159.657196 230.811203,158.982742 
	C230.910629,159.133163 231.010056,159.283585 231.175720,159.968582 
	C231.504898,160.999893 231.767838,161.496613 232.030777,161.993332 
	C232.072281,162.429520 232.113785,162.865707 232.216995,163.957016 
	C232.382889,165.319626 232.487061,166.027115 232.198837,166.899368 
	C221.984238,170.175720 212.192535,170.303207 202.462402,166.402893 
	C202.522858,165.330978 202.559235,164.620209 202.595612,163.909424 
	C202.724930,163.491699 202.854248,163.073975 203.217056,162.146057 
	C203.521957,161.065552 203.593369,160.495239 203.664795,159.924927 
z"/>
<path fill="#A6A6A6" opacity="1.000000" stroke="none" 
	d="
M234.653900,174.114304 
	C236.670074,176.718903 236.058685,178.915405 233.807892,181.086670 
	C231.420059,183.390121 229.219727,185.887939 226.405670,188.106644 
	C224.249344,187.941193 222.624863,187.969986 220.750427,188.000412 
	C220.500488,188.002060 220.000580,188.003387 219.699677,187.726318 
	C215.929718,187.302933 212.460648,187.156586 208.666046,186.995865 
	C207.906296,186.982346 207.472107,186.983215 207.037903,186.984085 
	C205.124985,185.047256 202.816437,183.354233 201.424850,181.096130 
	C200.319717,179.302841 200.336685,176.818069 200.318542,174.603806 
	C200.781631,175.795120 200.781631,177.022919 200.781631,178.060608 
	C202.349213,178.415634 203.666534,178.713974 205.032745,179.300079 
	C205.404343,179.892426 205.727066,180.197037 206.049789,180.501648 
	C206.365723,180.000488 206.681641,179.499329 207.331146,179.003433 
	C208.109589,179.008469 208.554443,179.008224 209.307175,179.288116 
	C215.943420,179.973892 222.270096,180.416290 228.603760,180.706009 
	C229.046265,180.726257 229.540497,179.615051 230.231384,178.888626 
	C231.653900,178.562775 232.855713,178.378281 234.058380,178.194443 
	C234.257446,176.834839 234.455673,175.474579 234.653900,174.114304 
z"/>
<path fill="#C2C2C2" opacity="1.000000" stroke="none" 
	d="
M208.999283,179.007996 
	C208.554443,179.008224 208.109589,179.008469 206.995651,178.999847 
	C205.878983,178.998093 205.431427,179.005203 204.983856,179.012299 
	C203.666534,178.713974 202.349213,178.415634 200.781631,178.060608 
	C200.781631,177.022919 200.781631,175.795120 200.580307,174.353546 
	C200.471527,173.284912 200.564072,172.430008 200.912628,171.137283 
	C201.322327,170.598526 201.476013,170.497604 201.884338,170.738480 
	C205.001755,171.719742 207.874756,172.937424 210.725418,172.887238 
	C218.426483,172.751678 226.118042,172.076599 233.974091,171.744781 
	C234.243469,172.154327 234.444092,172.329132 234.736679,172.398407 
	C234.738770,172.780838 234.740860,173.163284 234.698425,173.830017 
	C234.455673,175.474579 234.257446,176.834839 234.058380,178.194443 
	C232.855713,178.378281 231.653900,178.562775 230.018143,178.647995 
	C228.052109,178.253891 226.531281,177.806061 224.985840,177.691956 
	C219.596512,177.294083 214.031998,175.028320 208.999283,179.007996 
z"/>
<path fill="#949494" opacity="1.000000" stroke="none" 
	d="
M160.445648,71.430634 
	C154.387100,71.480217 148.105881,71.088097 141.821686,71.032043 
	C136.285782,70.982666 136.205429,66.365089 135.202225,64.022926 
	C132.309753,62.699154 130.396133,61.716022 128.400894,60.943737 
	C126.765961,60.310913 125.033867,59.929131 123.344841,59.436062 
	C123.096321,59.798515 122.847801,60.160969 122.599289,60.523422 
	C122.091026,59.201862 121.582764,57.880306 121.046677,56.195190 
	C134.086456,60.932766 147.154068,66.033897 160.445648,71.430634 
z"/>
<path fill="#949494" opacity="1.000000" stroke="none" 
	d="
M37.289627,41.226810 
	C39.473103,39.969738 41.739204,39.041649 43.270653,38.414444 
	C44.805523,43.369946 46.235374,47.986389 48.075951,53.928894 
	C50.579563,49.772907 52.134964,46.718433 54.637608,52.258869 
	C55.224396,53.557922 59.500706,53.190399 62.464195,53.649147 
	C62.082951,54.272217 61.268147,55.603855 60.393555,57.033207 
	C61.215618,57.754639 62.040131,58.478222 62.937950,59.520515 
	C59.109997,59.159935 55.190151,58.567463 51.320709,57.739452 
	C50.369972,57.536007 49.396667,56.715504 48.752525,55.920418 
	C44.907299,51.174179 41.155445,46.352295 37.289627,41.226810 
z"/>
<path fill="#DFDFDF" opacity="1.000000" stroke="none" 
	d="
M230.813171,158.607864 
	C225.941330,159.657196 221.067017,160.868591 216.203049,160.828415 
	C212.608765,160.798721 209.027939,159.138092 205.105591,157.725510 
	C204.753036,156.811203 204.735977,156.375458 204.718933,155.939728 
	C204.799240,155.514206 204.879547,155.088699 205.259033,154.349792 
	C205.558228,154.036392 205.959091,153.986618 206.395386,153.989777 
	C214.241776,154.986801 221.660034,156.169540 229.084946,153.082520 
	C229.277756,153.124603 229.671341,153.094940 229.671326,153.094940 
	C230.052612,154.807617 230.433884,156.520309 230.813171,158.607864 
z"/>
<path fill="#6A6A6A" opacity="1.000000" stroke="none" 
	d="
M161.204224,103.141678 
	C154.061249,104.192390 146.868866,104.959503 139.357330,105.523071 
	C137.351730,104.737579 135.681351,103.710213 133.976151,103.648735 
	C125.360512,103.338058 116.735809,103.278740 107.876961,102.830956 
	C125.478027,102.639793 143.316422,102.748940 161.204224,103.141678 
z"/>
<path fill="#949494" opacity="1.000000" stroke="none" 
	d="
M130.800140,76.804871 
	C129.388550,77.674637 127.745529,78.895920 126.086441,78.918144 
	C113.759544,79.083290 101.428993,78.958275 89.100868,79.067734 
	C87.225372,79.084389 85.356468,79.841698 83.270859,80.580070 
	C82.023270,80.088394 80.989334,79.273094 79.955391,78.457787 
	C80.114182,78.075706 80.272964,77.693626 80.431755,77.311546 
	C93.656052,77.311546 106.880447,77.335793 120.104561,77.286980 
	C122.236328,77.279106 124.366890,76.945793 126.721268,76.395004 
	C128.090698,73.860306 129.236877,71.693504 131.135635,68.103996 
	C131.585938,70.203033 132.172562,71.490799 132.038254,72.698410 
	C131.889343,74.037506 131.081940,75.303383 130.800140,76.804871 
z"/>
<path fill="#C5C5C5" opacity="1.000000" stroke="none" 
	d="
M233.813370,171.615585 
	C226.118042,172.076599 218.426483,172.751678 210.725418,172.887238 
	C207.874756,172.937424 205.001755,171.719742 201.833984,170.479172 
	C201.449020,169.545029 201.369019,169.212006 201.289001,168.878967 
	C201.425705,168.454834 201.562393,168.030685 201.887344,167.247650 
	C202.075607,166.888763 202.438309,166.764023 202.438309,166.764023 
	C212.192535,170.303207 221.984238,170.175720 232.378677,166.966644 
	C232.950928,166.869141 233.330917,166.924622 233.330917,166.924622 
	C233.373245,167.371399 233.415573,167.818176 233.511871,168.902771 
	C233.648346,170.232239 233.730850,170.923920 233.813370,171.615585 
z"/>
<path fill="#7D7D7D" opacity="1.000000" stroke="none" 
	d="
M394.007965,24.024002 
	C398.247467,22.286909 402.486938,20.549814 407.412476,18.817984 
	C408.751984,18.357412 409.405396,17.891579 410.058838,17.425745 
	C411.049225,17.056404 412.039581,16.687061 413.476990,16.673542 
	C414.364899,18.134966 414.805817,19.240562 415.246704,20.346161 
	C414.982727,20.865896 414.718750,21.385632 413.936798,22.154821 
	C411.829651,24.262760 410.240479,26.121244 408.376953,27.814289 
	C406.746216,27.254864 405.400299,26.819576 404.031464,26.475086 
	C400.695953,25.635651 397.349823,24.838297 394.007965,24.024002 
z"/>
<path fill="#7D7D7D" opacity="1.000000" stroke="none" 
	d="
M39.833229,23.409212 
	C39.024960,24.283800 38.073811,25.145948 36.967224,25.459433 
	C33.703312,26.384062 30.377861,27.091463 26.849632,28.189335 
	C24.699900,26.371569 22.777021,24.248343 20.941713,21.510630 
	C22.074978,19.889969 23.120674,18.883791 24.166368,17.877615 
	C29.317350,19.633759 34.468334,21.389902 39.833229,23.409212 
z"/>
<path fill="#959595" opacity="1.000000" stroke="none" 
	d="
M402.009125,36.789036 
	C399.173920,34.171982 396.759644,32.770531 392.408905,33.337711 
	C387.131714,34.025665 381.572754,32.552147 375.749329,31.807970 
	C377.956818,30.694935 380.550690,29.787783 383.779663,29.132576 
	C388.752106,29.490318 393.094696,29.499588 397.425079,29.734171 
	C400.570618,29.904572 403.699982,30.373001 406.836578,30.708542 
	C405.340302,32.700626 403.844055,34.692715 402.009125,36.789036 
z"/>
<path fill="#E4E4E4" opacity="1.000000" stroke="none" 
	d="
M194.815857,146.938538 
	C196.835220,148.895966 198.854599,150.853394 201.176590,153.012604 
	C201.273315,153.780273 201.067429,154.346161 200.510651,155.320404 
	C199.746582,156.148911 199.333405,156.569077 198.498734,156.984253 
	C196.467514,157.026917 194.774918,156.771530 193.265060,157.184402 
	C189.976471,158.083664 188.048172,156.871948 186.939804,153.861313 
	C187.881805,152.771637 188.823792,151.681976 190.218018,150.266968 
	C192.052109,148.940598 193.433990,147.939560 194.815857,146.938538 
z"/>
<path fill="#949494" opacity="1.000000" stroke="none" 
	d="
M407.130676,30.704178 
	C403.699982,30.373001 400.570618,29.904572 397.425079,29.734171 
	C393.094696,29.499588 388.752106,29.490318 384.154968,29.086954 
	C387.024567,27.225695 390.153992,25.662004 393.645691,24.061157 
	C397.349823,24.838297 400.695953,25.635651 404.031464,26.475086 
	C405.400299,26.819576 406.746216,27.254864 408.368500,28.105253 
	C408.711365,28.941267 408.788300,29.320877 408.865265,29.700478 
	C408.385071,30.033583 407.904907,30.366695 407.130676,30.704178 
z"/>
<path fill="#E4E4E4" opacity="1.000000" stroke="none" 
	d="
M233.936371,153.481888 
	C235.867859,151.279572 237.807373,149.383865 240.198013,147.295151 
	C241.776932,148.045731 242.904724,148.989334 244.032501,149.932938 
	C245.302780,151.043686 246.573059,152.154434 247.875793,153.936401 
	C246.192169,155.544815 244.569199,156.777191 242.739548,157.354279 
	C239.501389,158.375626 236.746048,156.858536 234.192627,154.983063 
	C234.109894,154.584869 234.027161,154.186691 233.936371,153.481888 
z"/>
<path fill="#D4D4D4" opacity="1.000000" stroke="none" 
	d="
M186.669571,153.942505 
	C188.048172,156.871948 189.976471,158.083664 193.265060,157.184402 
	C194.774918,156.771530 196.467514,157.026917 198.541931,157.246735 
	C199.045822,157.687134 199.085037,157.860077 199.124237,158.033020 
	C198.770767,158.457016 198.417297,158.881027 197.691208,159.697357 
	C196.596161,161.073059 195.873718,162.056396 195.151306,163.039749 
	C194.352905,164.603958 193.554489,166.168152 192.317627,167.537125 
	C190.926956,166.547012 189.974762,165.752121 189.022552,164.957245 
	C188.687775,164.497482 188.352997,164.037704 187.961090,163.013779 
	C187.566284,161.973999 187.228607,161.498383 186.890930,161.022766 
	C186.396866,159.840820 185.902802,158.658890 185.268005,156.919632 
	C185.101440,155.916550 185.075623,155.470795 185.049805,155.025040 
	C185.499649,154.691254 185.949493,154.357483 186.669571,153.942505 
z"/>
<path fill="#D4D4D4" opacity="1.000000" stroke="none" 
	d="
M234.149734,155.334015 
	C236.746048,156.858536 239.501389,158.375626 242.739548,157.354279 
	C244.569199,156.777191 246.192169,155.544815 247.977722,154.247559 
	C248.047211,153.887497 248.507599,153.937164 248.807404,154.290619 
	C249.412933,155.431808 249.718658,156.219559 250.024384,157.007324 
	C250.024368,157.007324 249.748444,157.200836 249.411835,157.531006 
	C248.414566,159.582581 247.753906,161.304001 247.093246,163.025421 
	C246.781693,163.516495 246.470123,164.007584 245.678955,164.770996 
	C244.214600,165.675232 243.229858,166.307129 242.245117,166.939041 
	C242.245117,166.939041 241.914505,166.690063 241.923309,166.127945 
	C240.959915,164.708099 239.987717,163.850388 239.015533,162.992661 
	C237.379303,160.556763 235.743073,158.120880 234.149734,155.334015 
z"/>
<path fill="#949494" opacity="1.000000" stroke="none" 
	d="
M105.619949,70.641144 
	C110.456314,70.063179 115.769897,67.904686 120.130219,72.805817 
	C121.197708,74.005722 123.230530,74.346802 124.917847,75.419418 
	C118.635406,74.141098 112.254631,72.526100 105.619949,70.641144 
z"/>
<path fill="#949494" opacity="1.000000" stroke="none" 
	d="
M220.000580,188.003387 
	C220.000580,188.003387 220.500488,188.002060 220.827606,188.355469 
	C222.189697,189.180847 223.224686,189.652802 224.259674,190.124771 
	C223.133591,191.686310 222.007523,193.247849 220.140106,194.941345 
	C217.807022,195.114456 216.215256,195.155594 214.623505,195.196747 
	C213.434433,194.014313 212.245377,192.831879 211.380157,191.316437 
	C214.469543,189.990082 217.235062,188.996735 220.000580,188.003387 
z"/>
<path fill="#949494" opacity="1.000000" stroke="none" 
	d="
M120.388916,55.473503 
	C118.447319,56.298786 115.762108,57.905575 114.205864,57.159004 
	C111.150284,55.693161 108.722862,52.917931 106.022202,50.301910 
	C110.724464,51.676620 115.440048,53.433926 120.388916,55.473503 
z"/>
<path fill="#292929" opacity="1.000000" stroke="none" 
	d="
M194.967545,146.619843 
	C193.433990,147.939560 192.052109,148.940598 190.338745,149.978180 
	C190.344116,146.619492 188.319702,147.313263 185.984833,147.844299 
	C189.773346,144.635178 194.124130,141.887939 200.244614,140.160461 
	C197.995377,142.855270 196.557312,144.578201 194.967545,146.619843 
z"/>
<path fill="#6A6A6A" opacity="1.000000" stroke="none" 
	d="
M295.859985,104.938690 
	C289.610687,104.867256 283.238586,104.418297 276.509094,103.658379 
	C276.255219,102.977623 276.358765,102.607819 276.462280,102.238007 
	C282.678253,102.397453 288.894196,102.556892 295.558899,102.862244 
	C295.917480,103.525818 295.827301,104.043488 295.859985,104.938690 
z"/>
<path fill="#949494" opacity="1.000000" stroke="none" 
	d="
M79.330818,64.066833 
	C84.919113,60.766342 89.734154,62.365234 93.931564,67.434189 
	C89.209053,66.612854 84.401665,65.467888 79.330818,64.066833 
z"/>
<path fill="#949494" opacity="1.000000" stroke="none" 
	d="
M79.923218,39.362816 
	C79.312950,40.295700 77.808861,41.573368 77.781647,41.542656 
	C74.620934,37.974903 68.196510,39.870575 66.058716,34.270378 
	C70.576950,35.653553 75.147949,37.375141 79.923218,39.362816 
z"/>
<path fill="#292929" opacity="1.000000" stroke="none" 
	d="
M244.086533,149.583038 
	C242.904724,148.989334 241.776932,148.045731 240.348389,146.986877 
	C238.426315,145.088959 236.805008,143.306320 235.183685,141.523682 
	C235.400436,141.126511 235.617172,140.729340 235.833923,140.332184 
	C239.163818,141.985489 242.493729,143.638809 245.969757,145.609650 
	C245.457458,147.029144 244.799011,148.131134 244.086533,149.583038 
z"/>
<path fill="#9E9E9E" opacity="1.000000" stroke="none" 
	d="
M219.699677,187.726318 
	C217.235062,188.996735 214.469543,189.990082 211.303925,191.009491 
	C210.561493,190.988235 210.297699,190.818726 210.031158,189.970642 
	C209.630432,188.612961 209.311005,187.811600 208.991577,187.010254 
	C212.460648,187.156586 215.929718,187.302933 219.699677,187.726318 
z"/>
<path fill="#131313" opacity="1.000000" stroke="none" 
	d="
M214.255508,109.891960 
	C213.734436,108.813049 213.213364,107.734138 212.752075,106.491890 
	C212.883301,105.245987 212.954742,104.163429 213.013153,102.540352 
	C213.000137,101.999840 212.996429,102.005554 212.996429,102.005554 
	C213.324570,101.955780 213.659058,101.837936 213.979797,101.867752 
	C215.571976,102.015770 217.160522,102.202705 218.750351,102.375916 
	C217.780777,103.632034 216.811218,104.888153 215.359177,106.769325 
	C215.467346,107.303665 215.755936,108.729240 216.036133,110.540741 
	C216.027740,110.926659 215.540314,110.932968 215.262466,110.658783 
	C214.846436,110.065186 214.603394,109.900978 214.255508,109.891960 
z"/>
<path fill="#949494" opacity="1.000000" stroke="none" 
	d="
M102.060547,48.120605 
	C101.788452,48.778618 101.206268,49.608280 100.861000,49.519241 
	C97.581001,48.673389 94.303207,47.776325 91.123383,46.622269 
	C90.519676,46.403168 90.350029,44.988113 89.974106,43.740646 
	C93.932198,44.859631 97.896286,46.362835 102.060547,48.120605 
z"/>
<path fill="#6A6A6A" opacity="1.000000" stroke="none" 
	d="
M415.512054,20.226303 
	C414.805817,19.240562 414.364899,18.134966 413.863586,16.580606 
	C416.030396,15.400830 417.725067,11.814143 420.324249,15.312757 
	C419.227600,16.790648 418.462219,17.809805 417.696838,18.828960 
	C417.057037,19.254789 416.417206,19.680618 415.512054,20.226303 
z"/>
<path fill="#6A6A6A" opacity="1.000000" stroke="none" 
	d="
M23.954353,17.570818 
	C23.120674,18.883791 22.074978,19.889969 20.813538,21.204308 
	C18.374374,19.936144 16.150955,18.359818 13.927536,16.783489 
	C14.492731,16.087299 15.057926,15.391108 15.623121,14.694916 
	C18.329527,15.551285 21.035931,16.407654 23.954353,17.570818 
z"/>
<path fill="#949494" opacity="1.000000" stroke="none" 
	d="
M67.323250,61.005302 
	C68.152969,57.720833 69.984055,57.751099 72.329849,59.604782 
	C73.736130,60.716049 75.264748,61.672497 76.883438,62.962456 
	C73.903831,62.544666 70.779167,61.862957 67.323250,61.005302 
z"/>
<path fill="#959595" opacity="1.000000" stroke="none" 
	d="
M382.104248,57.036316 
	C380.099854,51.332207 385.094452,53.095303 387.736176,52.351387 
	C387.890564,53.052814 387.750244,53.436577 387.609924,53.820332 
	C386.807617,54.652817 386.005310,55.485313 384.696228,56.583889 
	C383.494415,56.912083 382.799347,56.974197 382.104248,57.036316 
z"/>
<path fill="#131313" opacity="1.000000" stroke="none" 
	d="
M226.627533,101.475708 
	C225.263168,103.188950 223.989868,104.594887 222.413193,106.121017 
	C221.880722,102.463905 222.701019,99.434494 227.590134,99.015060 
	C227.536972,99.708755 227.127808,100.438583 226.627533,101.475708 
z"/>
<path fill="#131313" opacity="1.000000" stroke="none" 
	d="
M204.025284,94.729500 
	C202.380203,93.244003 200.786545,91.430138 199.148224,89.288017 
	C202.851395,88.863289 204.750610,90.456352 204.025284,94.729500 
z"/>
<path fill="#131313" opacity="1.000000" stroke="none" 
	d="
M409.053284,29.956425 
	C408.788300,29.320877 408.711365,28.941267 408.642883,28.270693 
	C410.240479,26.121244 411.829651,24.262760 413.745819,22.377937 
	C412.462280,24.971853 410.851776,27.592108 409.053284,29.956425 
z"/>
<path fill="#292929" opacity="1.000000" stroke="none" 
	d="
M205.959091,153.986618 
	C205.959091,153.986618 205.558228,154.036392 205.356277,154.038605 
	C204.294250,153.921524 203.434158,153.802246 202.325165,153.476746 
	C203.224854,151.786896 204.373459,150.303284 205.793839,149.325272 
	C206.030090,151.216125 205.994598,152.601364 205.959091,153.986618 
z"/>
<path fill="#292929" opacity="1.000000" stroke="none" 
	d="
M230.152008,153.027802 
	C229.671341,153.094940 229.277756,153.124603 229.107712,152.722763 
	C228.559235,151.213257 228.180786,150.105576 227.802338,148.997910 
	C227.824493,148.239426 227.846634,147.480942 228.100708,146.437897 
	C228.525848,146.153625 228.719055,146.153931 228.912262,146.154236 
	C229.206741,146.634186 229.501221,147.114151 230.011887,148.061081 
	C230.681671,149.072067 231.135284,149.616058 231.588882,150.160065 
	C231.878281,150.773270 232.167679,151.386490 232.504105,152.336578 
	C231.911652,152.769180 231.272156,152.864929 230.152008,153.027802 
z"/>
<path fill="#6A6A6A" opacity="1.000000" stroke="none" 
	d="
M308.505310,108.120621 
	C306.293182,107.531960 304.416199,106.937866 302.267822,106.086121 
	C304.223206,105.900230 306.452576,105.941803 308.669281,106.131416 
	C308.782104,106.141075 308.785919,107.424706 308.505310,108.120621 
z"/>
<path fill="#6A6A6A" opacity="1.000000" stroke="none" 
	d="
M132.706070,105.606598 
	C131.070877,106.363678 129.143738,106.910545 127.015060,107.795227 
	C126.592468,107.458481 126.371391,106.783928 126.150314,106.109375 
	C128.238251,105.871712 130.326187,105.634048 132.706070,105.606598 
z"/>
<path fill="#9E9E9E" opacity="1.000000" stroke="none" 
	d="
M224.542236,190.106903 
	C223.224686,189.652802 222.189697,189.180847 221.077545,188.353821 
	C222.624863,187.969986 224.249344,187.941193 226.090057,188.245804 
	C225.812454,189.082474 225.318634,189.585739 224.542236,190.106903 
z"/>
<path fill="#131313" opacity="1.000000" stroke="none" 
	d="
M186.998810,81.163315 
	C184.700043,80.597878 182.260941,79.727829 179.598389,78.579559 
	C181.869461,79.153793 184.363968,80.006241 186.998810,81.163315 
z"/>
<path fill="#7D7D7D" opacity="1.000000" stroke="none" 
	d="
M214.741852,195.527405 
	C216.215256,195.155594 217.807022,195.114456 219.874756,195.127686 
	C218.862717,198.186615 217.132828,199.226501 214.741852,195.527405 
z"/>
<path fill="#CDCDCD" opacity="1.000000" stroke="none" 
	d="
M210.952881,104.721321 
	C209.754257,104.538017 208.519196,104.049271 207.142044,103.279236 
	C207.302200,102.684540 207.604446,102.371132 208.194168,101.895950 
	C209.293243,102.628082 210.104843,103.521980 210.952881,104.721321 
z"/>
<path fill="#131313" opacity="1.000000" stroke="none" 
	d="
M418.062134,18.905426 
	C418.462219,17.809805 419.227600,16.790648 420.277466,15.623466 
	C421.040894,16.619946 421.519836,17.764448 422.290436,19.605917 
	C420.501038,19.316864 419.464233,19.149378 418.062134,18.905426 
z"/>
<path fill="#959595" opacity="1.000000" stroke="none" 
	d="
M325.662354,51.018105 
	C324.492615,51.865482 322.971497,52.691914 321.229797,53.270851 
	C322.443085,52.347958 323.877014,51.672558 325.662354,51.018105 
z"/>
<path fill="#131313" opacity="1.000000" stroke="none" 
	d="
M390.778076,48.979118 
	C391.523346,48.316265 392.268585,47.653408 393.297943,46.902626 
	C396.599365,50.064850 393.665192,49.743988 391.263184,49.728981 
	C390.849792,49.467491 390.778076,48.979115 390.778076,48.979118 
z"/>
<path fill="#959595" opacity="1.000000" stroke="none" 
	d="
M317.738129,77.779068 
	C316.567902,78.387619 315.158508,78.699028 313.365662,79.011185 
	C312.966400,78.633057 312.950531,78.254181 312.919281,77.591858 
	C314.435577,77.366241 315.967255,77.424080 317.738129,77.779068 
z"/>
<path fill="#B0B0B0" opacity="1.000000" stroke="none" 
	d="
M242.254181,167.256287 
	C243.229858,166.307129 244.214600,165.675232 245.498245,164.998917 
	C244.999771,166.341034 245.933044,170.062805 242.254181,167.256287 
z"/>
<path fill="#292929" opacity="1.000000" stroke="none" 
	d="
M247.441162,162.941467 
	C247.753906,161.304001 248.414566,159.582581 249.398743,157.699005 
	C249.077866,159.310410 248.433472,161.083969 247.441162,162.941467 
z"/>
<path fill="#131313" opacity="1.000000" stroke="none" 
	d="
M382.058136,57.233192 
	C382.799347,56.974197 383.494415,56.912083 384.541443,56.828362 
	C385.194550,57.547268 385.495728,58.287785 385.796875,59.028301 
	C384.604218,58.821114 383.411591,58.613926 382.075439,58.116615 
	C381.931976,57.826496 382.012024,57.430073 382.058136,57.233192 
z"/>
<path fill="#959595" opacity="1.000000" stroke="none" 
	d="
M343.758026,77.817764 
	C342.487885,78.247566 341.000671,78.410378 339.271179,78.330276 
	C340.532928,77.908493 342.036957,77.729637 343.758026,77.817764 
z"/>
<path fill="#292929" opacity="1.000000" stroke="none" 
	d="
M250.358612,157.014557 
	C249.718658,156.219559 249.412933,155.431808 249.035187,154.332123 
	C250.121552,154.605240 251.279938,155.190292 252.438309,155.775345 
	C251.856491,156.190826 251.274673,156.606308 250.358612,157.014557 
z"/>
<path fill="#949494" opacity="1.000000" stroke="none" 
	d="
M96.789642,68.486877 
	C98.022095,68.428551 99.504684,68.614090 101.017181,69.132317 
	C99.711319,69.220245 98.375549,68.975487 96.789642,68.486877 
z"/>
<path fill="#959595" opacity="1.000000" stroke="none" 
	d="
M331.778564,77.827988 
	C330.805450,78.243172 329.636108,78.400421 328.247223,78.320686 
	C329.212585,77.912483 330.397461,77.741272 331.778564,77.827988 
z"/>
<path fill="#959595" opacity="1.000000" stroke="none" 
	d="
M348.420319,84.140152 
	C349.129303,83.147583 350.146545,82.053345 351.530121,80.950638 
	C350.840485,81.974266 349.784546,83.006378 348.420319,84.140152 
z"/>
<path fill="#B8B8B8" opacity="1.000000" stroke="none" 
	d="
M328.224792,101.696335 
	C328.870636,100.611176 329.820007,99.467445 331.122772,98.453888 
	C330.493561,99.601959 329.510925,100.619865 328.224792,101.696335 
z"/>
<path fill="#B0B0B0" opacity="1.000000" stroke="none" 
	d="
M239.037476,163.353348 
	C239.987717,163.850388 240.959915,164.708099 241.889664,165.923767 
	C240.917953,165.425797 239.988678,164.569916 239.037476,163.353348 
z"/>
<path fill="#949494" opacity="1.000000" stroke="none" 
	d="
M208.666046,186.995865 
	C209.311005,187.811600 209.630432,188.612961 209.962158,189.739288 
	C209.037766,189.245605 208.101059,188.426910 207.101135,187.296158 
	C207.472107,186.983215 207.906296,186.982346 208.666046,186.995865 
z"/>
<path fill="#292929" opacity="1.000000" stroke="none" 
	d="
M195.511826,163.004776 
	C195.873718,162.056396 196.596161,161.073059 197.613892,159.967255 
	C197.230255,160.886459 196.551300,161.928146 195.511826,163.004776 
z"/>
<path fill="#292929" opacity="1.000000" stroke="none" 
	d="
M202.462402,166.402893 
	C202.438309,166.764023 202.075607,166.888763 201.885040,166.910309 
	C201.808594,165.968384 201.922729,165.004898 202.316238,163.975433 
	C202.559235,164.620209 202.522858,165.330978 202.462402,166.402893 
z"/>
<path fill="#292929" opacity="1.000000" stroke="none" 
	d="
M184.722900,154.999512 
	C185.075623,155.470795 185.101440,155.916550 185.039886,156.688065 
	C184.189316,156.692474 183.426117,156.371109 182.662903,156.049744 
	C183.240601,155.691162 183.818298,155.332581 184.722900,154.999512 
z"/>
<path fill="#292929" opacity="1.000000" stroke="none" 
	d="
M233.531784,166.723434 
	C233.330917,166.924622 232.950928,166.869141 232.771088,166.801880 
	C232.487061,166.027115 232.382889,165.319626 232.347031,164.260651 
	C232.854462,164.780197 233.293564,165.651215 233.531784,166.723434 
z"/>
<path fill="#292929" opacity="1.000000" stroke="none" 
	d="
M189.012543,165.337433 
	C189.974762,165.752121 190.926956,166.547012 191.993439,167.639893 
	C191.072647,167.197815 190.037598,166.457733 189.012543,165.337433 
z"/>
<path fill="#292929" opacity="1.000000" stroke="none" 
	d="
M233.974091,171.744781 
	C233.730850,170.923920 233.648346,170.232239 233.661530,169.205872 
	C234.159042,169.829559 234.560837,170.787964 234.849655,172.072388 
	C234.444092,172.329132 234.243469,172.154327 233.974091,171.744781 
z"/>
<path fill="#131313" opacity="1.000000" stroke="none" 
	d="
M195.919312,84.798035 
	C195.138245,84.840660 194.327454,84.564659 193.277573,84.066681 
	C193.988846,84.056274 194.939209,84.267838 195.919312,84.798035 
z"/>
<path fill="#959595" opacity="1.000000" stroke="none" 
	d="
M352.235901,80.828499 
	C351.942902,80.299973 351.943451,79.703476 351.951416,78.659508 
	C352.724274,78.212044 353.489685,78.212044 354.255127,78.212044 
	C354.588837,78.578461 354.922546,78.944885 355.256256,79.311302 
	C354.347321,79.794380 353.438385,80.277451 352.235901,80.828499 
z"/>
<path fill="#131313" opacity="1.000000" stroke="none" 
	d="
M387.977539,53.825417 
	C387.750244,53.436577 387.890564,53.052814 388.106201,52.370213 
	C388.520538,51.997540 388.774414,51.809059 389.248505,51.275749 
	C389.553833,51.045563 390.012909,51.034939 390.012909,51.034939 
	C389.456970,51.966789 388.901062,52.898640 387.977539,53.825417 
z"/>
<path fill="#959595" opacity="1.000000" stroke="none" 
	d="
M390.087036,50.800125 
	C390.012909,51.034939 389.553833,51.045563 389.324249,51.044651 
	C389.449921,50.358517 389.805176,49.673298 390.469269,48.983597 
	C390.778076,48.979115 390.849792,49.467491 390.874146,49.713078 
	C390.550812,50.036945 390.305023,50.239162 390.087036,50.800125 
z"/>
<path fill="#959595" opacity="1.000000" stroke="none" 
	d="
M276.543121,70.534676 
	C277.080078,71.382774 277.385712,72.232666 277.691345,73.082565 
	C277.444305,73.209694 277.197266,73.336830 276.950226,73.463959 
	C276.634094,72.827057 276.317963,72.190147 276.004272,71.218735 
	C276.006744,70.884232 276.311798,70.536469 276.543121,70.534676 
z"/>
<path fill="#9E9E9E" opacity="1.000000" stroke="none" 
	d="
M253.717178,79.611275 
	C253.338608,80.062584 252.656067,80.460228 251.645569,80.794868 
	C252.016129,80.340446 252.714676,79.949028 253.717178,79.611275 
z"/>
<path fill="#6A6A6A" opacity="1.000000" stroke="none" 
	d="
M409.756226,17.398090 
	C409.405396,17.891579 408.751984,18.357412 407.763214,18.743736 
	C408.103149,18.232964 408.778412,17.801701 409.756226,17.398090 
z"/>
<path fill="#959595" opacity="1.000000" stroke="none" 
	d="
M362.725586,36.195778 
	C362.460754,36.640858 361.906982,37.052898 361.187439,37.261421 
	C361.493378,36.759514 361.964996,36.461124 362.725586,36.195778 
z"/>
<path fill="#959595" opacity="1.000000" stroke="none" 
	d="
M282.705505,68.040009 
	C282.444366,68.505447 281.884644,68.952599 281.155212,69.180939 
	C281.459320,68.648666 281.933167,68.335197 282.705505,68.040009 
z"/>
<path fill="#292929" opacity="1.000000" stroke="none" 
	d="
M201.061935,168.947784 
	C201.369019,169.212006 201.449020,169.545029 201.579376,170.137375 
	C201.476013,170.497604 201.322327,170.598526 200.917206,170.812790 
	C200.722137,170.289627 200.778503,169.653122 201.061935,168.947784 
z"/>
<path fill="#959595" opacity="1.000000" stroke="none" 
	d="
M304.730469,59.218475 
	C304.469574,59.658413 303.923462,60.075851 303.206909,60.297901 
	C303.506073,59.800331 303.975677,59.498154 304.730469,59.218475 
z"/>
<path fill="#292929" opacity="1.000000" stroke="none" 
	d="
M182.546570,137.961578 
	C182.689209,138.488419 182.554916,139.021225 182.267990,139.788544 
	C182.166794,139.337875 182.218216,138.652725 182.546570,137.961578 
z"/>
<path fill="#292929" opacity="1.000000" stroke="none" 
	d="
M253.105804,139.863647 
	C252.650253,139.515518 252.411636,139.005005 252.168945,138.211609 
	C252.550812,138.519577 252.936768,139.110428 253.105804,139.863647 
z"/>
<path fill="#292929" opacity="1.000000" stroke="none" 
	d="
M186.685181,161.187088 
	C187.228607,161.498383 187.566284,161.973999 187.854095,162.748718 
	C187.362625,162.482346 186.921021,161.916885 186.685181,161.187088 
z"/>
<path fill="#292929" opacity="1.000000" stroke="none" 
	d="
M232.243637,161.845337 
	C231.767838,161.496613 231.504898,160.999893 231.292145,160.212692 
	C231.713715,160.513916 232.085098,161.105637 232.243637,161.845337 
z"/>
<path fill="#292929" opacity="1.000000" stroke="none" 
	d="
M203.401794,159.967621 
	C203.593369,160.495239 203.521957,161.065552 203.216919,161.816315 
	C203.035110,161.334625 203.086945,160.672485 203.401794,159.967621 
z"/>
<path fill="#292929" opacity="1.000000" stroke="none" 
	d="
M182.082703,147.993988 
	C182.592453,147.894501 183.016647,148.083817 183.767822,148.393433 
	C183.626617,148.836334 183.158432,149.158905 182.690247,149.481476 
	C182.459213,149.081924 182.228180,148.682343 182.082703,147.993988 
z"/>
<path fill="#292929" opacity="1.000000" stroke="none" 
	d="
M250.984406,148.785995 
	C251.332962,148.325806 251.758728,148.143677 252.504700,147.826187 
	C252.237137,148.148560 251.649368,148.606293 250.984406,148.785995 
z"/>
<path fill="#292929" opacity="1.000000" stroke="none" 
	d="
M204.457916,155.980591 
	C204.735977,156.375458 204.753036,156.811203 204.752472,157.579102 
	C204.734879,157.911270 204.359406,157.943024 204.172913,157.969894 
	C204.056595,157.338318 204.126755,156.679886 204.457916,155.980591 
z"/>
<path fill="#292929" opacity="1.000000" stroke="none" 
	d="
M199.468384,157.965088 
	C199.085037,157.860077 199.045822,157.687134 198.963409,157.251709 
	C199.333405,156.569077 199.746582,156.148911 200.435287,155.617889 
	C200.411377,156.303741 200.111938,157.100449 199.468384,157.965088 
z"/>
<path fill="#131313" opacity="1.000000" stroke="none" 
	d="
M213.003143,101.996971 
	C212.610260,101.881508 212.214340,101.768906 211.818436,101.656303 
	C212.130280,101.649734 212.442108,101.643166 212.875183,101.821075 
	C212.996429,102.005554 213.000137,101.999840 213.003143,101.996971 
z"/>
<path fill="#131313" opacity="1.000000" stroke="none" 
	d="
M217.537384,111.844795 
	C217.465088,112.025887 217.330902,112.167191 217.273865,112.095909 
	C217.351013,111.883324 217.475525,111.805008 217.537384,111.844795 
z"/>
<path fill="#959595" opacity="1.000000" stroke="none" 
	d="
M307.518616,76.005241 
	C308.074921,75.622116 308.627716,75.527321 309.180481,75.432526 
	C309.173431,75.830414 309.166382,76.228310 309.159332,76.626198 
	C308.611267,76.515327 308.063171,76.404449 307.518616,76.005241 
z"/>
<path fill="#949494" opacity="1.000000" stroke="none" 
	d="
M89.518120,51.555340 
	C90.303825,50.974228 91.201813,50.686249 92.099792,50.398270 
	C92.107048,50.958000 92.114296,51.517731 92.121552,52.077461 
	C91.291168,52.001129 90.460777,51.924797 89.518120,51.555340 
z"/>
<path fill="#949494" opacity="1.000000" stroke="none" 
	d="
M81.296341,44.249725 
	C81.970734,44.788120 82.336754,45.377670 82.702782,45.967216 
	C82.306358,46.145126 81.909935,46.323036 81.513519,46.500954 
	C81.338333,45.767593 81.163147,45.034237 81.296341,44.249725 
z"/>
<path fill="#949494" opacity="1.000000" stroke="none" 
	d="
M155.574982,74.351555 
	C155.681625,73.943550 155.939713,73.693886 156.214142,73.463676 
	C156.221222,73.457726 156.406815,73.664543 156.509140,73.772125 
	C156.248947,74.018906 155.988770,74.265686 155.574982,74.351555 
z"/>
<path fill="#949494" opacity="1.000000" stroke="none" 
	d="
M66.352051,40.424393 
	C65.944679,40.317986 65.698036,40.058544 65.451401,39.799107 
	C65.558876,39.697197 65.754387,39.500729 65.761139,39.507015 
	C66.022423,39.750263 66.266464,40.012032 66.352051,40.424393 
z"/>
<path fill="#949494" opacity="1.000000" stroke="none" 
	d="
M87.044960,47.450577 
	C87.263550,47.811161 87.261002,48.169048 87.232796,48.524902 
	C87.232025,48.534615 86.825455,48.528683 86.825005,48.519505 
	C86.807678,48.162968 86.815651,47.805206 87.044960,47.450577 
z"/>
<path fill="#E4E4E4" opacity="1.000000" stroke="none" 
	d="
M227.346741,148.994873 
	C228.180786,150.105576 228.559235,151.213257 228.914902,152.680695 
	C221.660034,156.169540 214.241776,154.986801 206.395386,153.989777 
	C205.994598,152.601364 206.030090,151.216125 206.045624,149.414948 
	C212.980804,148.996643 219.935989,148.994247 227.346741,148.994873 
z"/>
<path fill="#E4E4E4" opacity="1.000000" stroke="none" 
	d="
M231.858475,150.003387 
	C231.135284,149.616058 230.681671,149.072067 230.215790,148.259735 
	C230.845016,148.609833 231.486542,149.228271 231.858475,150.003387 
z"/>
<path fill="#B8B8B8" opacity="1.000000" stroke="none" 
	d="
M228.882690,145.849030 
	C228.719055,146.153931 228.525848,146.153625 228.058472,146.059174 
	C227.420258,145.521576 227.056229,145.078110 226.692200,144.634644 
	C227.412506,144.937698 228.132812,145.240753 228.882690,145.849030 
z"/>
<path fill="#DFDFDF" opacity="1.000000" stroke="none" 
	d="
M220.978394,110.484970 
	C222.915939,110.401703 224.865494,110.951820 226.816803,110.958084 
	C246.607986,111.021667 266.399445,110.996475 286.190826,110.996201 
	C289.954895,110.996147 293.718994,110.996193 297.483063,110.996193 
	C297.626709,111.486801 297.770355,111.977417 297.914001,112.468025 
	C296.836121,113.280243 295.758270,114.092461 294.333801,114.941223 
	C293.508270,114.393456 292.978455,113.267982 292.558228,113.307503 
	C287.683929,113.765930 282.838684,114.602806 277.958862,114.903656 
	C275.475952,115.056732 272.940948,114.065788 270.425751,114.045113 
	C258.309601,113.945549 246.192108,114.017532 234.075211,113.990013 
	C230.327164,113.981506 226.565735,113.996712 222.843658,113.647270 
	C222.145294,113.581703 221.604660,111.836197 220.978394,110.484970 
z"/>
<path fill="#DFDFDF" opacity="1.000000" stroke="none" 
	d="
M213.866791,109.912979 
	C214.603394,109.900978 214.846436,110.065186 215.023209,110.612282 
	C212.833801,115.616882 208.214035,113.714386 204.918015,113.779694 
	C185.439819,114.165604 165.950195,113.984138 146.464447,113.965340 
	C144.208939,113.963158 141.953613,113.786499 139.339935,113.846603 
	C137.849396,110.488754 140.332748,110.132744 142.643585,110.158897 
	C162.415787,110.382652 182.186325,110.768494 201.958801,110.940628 
	C205.795349,110.974030 209.638153,110.288109 213.866791,109.912979 
z"/>
<path fill="#CDCDCD" opacity="1.000000" stroke="none" 
	d="
M205.952988,102.617943 
	C205.805161,103.749794 205.611450,105.202995 205.407272,105.204460 
	C192.195358,105.299721 178.915710,107.512825 165.397552,104.054596 
	C164.538635,100.511932 166.440674,99.841064 169.433472,99.966415 
	C179.464249,100.386559 189.503632,100.604752 199.533386,101.044571 
	C201.670013,101.138268 203.779968,101.840126 205.952988,102.617943 
z"/>
<path fill="#CDCDCD" opacity="1.000000" stroke="none" 
	d="
M269.996582,103.587555 
	C256.375000,103.880424 242.748779,103.762062 229.060760,103.315308 
	C230.124634,102.329948 231.239944,101.124718 232.377625,101.103226 
	C241.066254,100.939133 249.760193,101.075691 258.450256,100.955879 
	C260.888916,100.922241 263.313049,100.270027 265.756866,100.040451 
	C268.025604,99.827332 270.233429,99.904594 269.996582,103.587555 
z"/>
<path fill="#B8B8B8" opacity="1.000000" stroke="none" 
	d="
M276.051697,102.163803 
	C276.358765,102.607819 276.255219,102.977623 276.093231,103.629707 
	C274.912567,103.960243 273.790375,104.008507 272.348541,104.012093 
	C273.233002,103.341476 274.437073,102.715538 276.051697,102.163803 
z"/>
<path fill="#B8B8B8" opacity="1.000000" stroke="none" 
	d="
M209.307175,179.288116 
	C214.031998,175.028320 219.596512,177.294083 224.985840,177.691956 
	C226.531281,177.806061 228.052109,178.253891 229.797455,178.789337 
	C229.540497,179.615051 229.046265,180.726257 228.603760,180.706009 
	C222.270096,180.416290 215.943420,179.973892 209.307175,179.288116 
z"/>
<path fill="#B8B8B8" opacity="1.000000" stroke="none" 
	d="
M205.032745,179.300064 
	C205.431427,179.005203 205.878983,178.998093 206.662048,178.994568 
	C206.681641,179.499329 206.365723,180.000488 206.049789,180.501648 
	C205.727066,180.197037 205.404343,179.892426 205.032745,179.300064 
z"/>
</svg>